Dinish-Bold.ufo
<glyph name="nine" format="2">
  <advance width="528"/>
  <unicode hex="0039"/>
  <outline>
    <contour>
      <point x="133" y="0" type="line"/>
      <point x="274" y="0" type="line"/>
      <point x="436" y="314" type="line" smooth="yes"/>
      <point x="462.591" y="365.541"/>
      <point x="482" y="418.254"/>
      <point x="482" y="477" type="curve" smooth="yes"/>
      <point x="482" y="509" type="line" smooth="yes"/>
      <point x="482" y="644.674"/>
      <point x="396.348" y="718"/>
      <point x="264" y="718" type="curve" smooth="yes"/>
      <point x="131.954" y="718"/>
      <point x="46" y="638.848"/>
      <point x="46" y="505" type="curve" smooth="yes"/>
      <point x="46" y="472" type="line" smooth="yes"/>
      <point x="46" y="359.577"/>
      <point x="110.313" y="275"/>
      <point x="228" y="275" type="curve" smooth="yes"/>
      <point x="245.889" y="275"/>
      <point x="263.709" y="278.514"/>
      <point x="280" y="286" type="curve"/>
    </contour>
    <contour>
      <point x="264" y="387" type="curve" smooth="yes"/>
      <point x="208.464" y="387"/>
      <point x="180" y="426.317"/>
      <point x="180" y="479" type="curve" smooth="yes"/>
      <point x="180" y="511" type="line" smooth="yes"/>
      <point x="180" y="564.165"/>
      <point x="207.578" y="604"/>
      <point x="264" y="604" type="curve" smooth="yes"/>
      <point x="320.679" y="604"/>
      <point x="347" y="565.335"/>
      <point x="347" y="512" type="curve" smooth="yes"/>
      <point x="347" y="478" type="line" smooth="yes"/>
      <point x="347" y="424.984"/>
      <point x="319.974" y="387"/>
    </contour>
  </outline>
</glyph>
<glyph name="less" format="2">
  <advance width="541"/>
  <unicode hex="003C"/>
  <outline>
    <contour>
      <point x="49" y="228" type="line"/>
      <point x="492" y="54" type="line"/>
      <point x="492" y="173" type="line"/>
      <point x="207" y="281" type="line"/>
      <point x="492" y="389" type="line"/>
      <point x="492" y="507" type="line"/>
      <point x="49" y="334" type="line"/>
    </contour>
  </outline>
</glyph>
<glyph name="I" format="2">
  <advance width="254"/>
  <unicode hex="0049"/>
  <anchor x="127" y="776" name="top"/>
  <anchor x="194" y="0" name="b.cedilla"/>
  <anchor x="127" y="-86" name="bottom"/>
  <outline>
    <contour>
      <point x="60" y="0" type="line"/>
      <point x="194" y="0" type="line"/>
      <point x="194" y="707" type="line"/>
      <point x="60" y="707" type="line"/>
    </contour>
  </outline>
  <guideline angle="90" name="h1" x="127" y="0"/>
</glyph>
<glyph name="N" format="2">
  <advance width="649"/>
  <unicode hex="004E"/>
  <anchor x="322" y="776" name="top"/>
  <anchor x="323" y="-86" name="bottom"/>
  <outline>
    <contour>
      <point x="60" y="0" type="line"/>
      <point x="195" y="0" type="line"/>
      <point x="195" y="441" type="line"/>
      <point x="455" y="0" type="line"/>
      <point x="589" y="0" type="line"/>
      <point x="589" y="707" type="line"/>
      <point x="455" y="707" type="line"/>
      <point x="455" y="264" type="line"/>
      <point x="195" y="707" type="line"/>
      <point x="60" y="707" type="line"/>
    </contour>
  </outline>
  <guideline angle="90" name="h1" x="322" y="0"/>
</glyph>
<glyph name="underscore" format="2">
  <advance width="512"/>
  <unicode hex="005F"/>
  <outline>
    <contour>
      <point x="0" y="-124" type="line"/>
      <point x="512" y="-124" type="line"/>
      <point x="512" y="-41" type="line"/>
      <point x="0" y="-41" type="line"/>
    </contour>
  </outline>
</glyph>
<glyph name="grave" format="2">
  <advance width="512"/>
  <unicode hex="0060"/>
  <outline>
    <contour>
      <point x="130" y="738" type="line"/>
      <point x="271" y="602" type="line"/>
      <point x="381" y="602" type="line"/>
      <point x="270" y="738" type="line"/>
    </contour>
  </outline>
</glyph>
<glyph name="c" format="2">
  <advance width="517"/>
  <unicode hex="0063"/>
  <anchor x="264" y="602" name="top"/>
  <anchor x="235" y="0" name="b.cedilla"/>
  <anchor x="236" y="-86" name="bottom"/>
  <outline>
    <contour>
      <point x="350" y="190" type="line"/>
      <point x="350" y="184" type="line" smooth="yes"/>
      <point x="350" y="133.128"/>
      <point x="314.864" y="106"/>
      <point x="264" y="106" type="curve" smooth="yes"/>
      <point x="193.277" y="106"/>
      <point x="172" y="155.198"/>
      <point x="172" y="218" type="curve" smooth="yes"/>
      <point x="172" y="314" type="line" smooth="yes"/>
      <point x="172" y="375.517"/>
      <point x="194.823" y="426"/>
      <point x="264" y="426" type="curve" smooth="yes"/>
      <point x="317.181" y="426"/>
      <point x="350" y="394.861"/>
      <point x="350" y="342" type="curve" smooth="yes"/>
      <point x="350" y="339" type="line"/>
      <point x="471" y="339" type="line"/>
      <point x="471" y="344" type="line" smooth="yes"/>
      <point x="471" y="473.865"/>
      <point x="389.602" y="539"/>
      <point x="262" y="539" type="curve" smooth="yes"/>
      <point x="119.061" y="539"/>
      <point x="46" y="456.227"/>
      <point x="46" y="316" type="curve" smooth="yes"/>
      <point x="46" y="217" type="line" smooth="yes"/>
      <point x="46" y="75.5634"/>
      <point x="117.813" y="-6"/>
      <point x="262" y="-6" type="curve" smooth="yes"/>
      <point x="381.157" y="-6"/>
      <point x="471" y="56.6576"/>
      <point x="471" y="183" type="curve" smooth="yes"/>
      <point x="471" y="190" type="line"/>
    </contour>
  </outline>
  <guideline angle="0" name="horizontal" x="0" y="532"/>
  <guideline angle="90" name="h1" x="264" y="0"/>
</glyph>
<glyph name="e" format="2">
  <advance width="529"/>
  <unicode hex="0065"/>
  <anchor x="265" y="602" name="top"/>
  <anchor x="265" y="-86" name="bottom"/>
  <anchor x="331" y="0" name="b.cedilla"/>
  <outline>
    <contour>
      <point x="172" y="228" type="line"/>
      <point x="483" y="228" type="line"/>
      <point x="483" y="299" type="line" smooth="yes"/>
      <point x="483" y="438.543"/>
      <point x="412.675" y="539"/>
      <point x="265" y="539" type="curve" smooth="yes"/>
      <point x="114.19" y="539"/>
      <point x="46" y="441.794"/>
      <point x="46" y="299" type="curve" smooth="yes"/>
      <point x="46" y="234" type="line" smooth="yes"/>
      <point x="46" y="88.9327"/>
      <point x="117.421" y="-6"/>
      <point x="269" y="-6" type="curve" smooth="yes"/>
      <point x="374.087" y="-6"/>
      <point x="479" y="42.8701"/>
      <point x="479" y="162" type="curve" smooth="yes"/>
      <point x="479" y="167" type="line"/>
      <point x="358" y="167" type="line"/>
      <point x="358.037" y="162.022" type="line" smooth="yes"/>
      <point x="358.376" y="116.844"/>
      <point x="318.348" y="103"/>
      <point x="274" y="103" type="curve" smooth="yes"/>
      <point x="202.938" y="103"/>
      <point x="172" y="146.516"/>
      <point x="172" y="214" type="curve" smooth="yes"/>
    </contour>
    <contour>
      <point x="172" y="315" type="line"/>
      <point x="171.966" y="319.154" type="line" smooth="yes"/>
      <point x="171.966" y="381.739"/>
      <point x="195.475" y="430"/>
      <point x="265" y="430" type="curve" smooth="yes"/>
      <point x="329.301" y="430"/>
      <point x="356" y="389.39"/>
      <point x="356" y="329" type="curve" smooth="yes"/>
      <point x="356" y="315" type="line"/>
    </contour>
  </outline>
  <guideline angle="0" name="horizontal" x="0" y="532"/>
  <guideline angle="90" name="h1" x="265" y="0"/>
</glyph>
<glyph name="i" format="2">
  <advance width="246"/>
  <unicode hex="0069"/>
  <anchor x="123" y="532" name="top"/>
  <anchor x="186" y="0" name="b.cedilla"/>
  <anchor x="122" y="-86" name="bottom"/>
  <outline>
    <contour>
      <point x="60" y="0" type="line"/>
      <point x="186" y="0" type="line"/>
      <point x="186" y="532" type="line"/>
      <point x="60" y="532" type="line"/>
    </contour>
    <contour>
      <point x="58" y="605" type="line"/>
      <point x="187" y="605" type="line"/>
      <point x="187" y="707" type="line"/>
      <point x="58" y="707" type="line"/>
    </contour>
  </outline>
</glyph>
<glyph name="k" format="2">
  <advance width="532"/>
  <unicode hex="006B"/>
  <anchor x="238" y="773" name="top"/>
  <anchor x="260" y="-86" name="bottom"/>
  <outline>
    <contour>
      <point x="55" y="0" type="line"/>
      <point x="182" y="0" type="line"/>
      <point x="182" y="707" type="line"/>
      <point x="55" y="707" type="line"/>
    </contour>
    <contour>
      <point x="172.219" y="146.451" type="line"/>
      <point x="505" y="532" type="line"/>
      <point x="354" y="532" type="line"/>
      <point x="172.219" y="298.879" type="line"/>
    </contour>
    <contour>
      <point x="365" y="0" type="line"/>
      <point x="518" y="0" type="line"/>
      <point x="315.025" y="334.128" type="line"/>
      <point x="231.444" y="236.373" type="line"/>
    </contour>
  </outline>
  <guideline angle="90" name="vertical" x="238" y="0"/>
  <guideline angle="0" name="horizontal" x="0" y="773"/>
</glyph>
<glyph name="o" format="2">
  <advance width="522"/>
  <unicode hex="006F"/>
  <anchor x="262" y="602" name="top"/>
  <anchor x="262" y="-86" name="bottom"/>
  <anchor x="241" y="0" name="b.cedilla"/>
  <outline>
    <contour>
      <point x="262" y="-6" type="curve" smooth="yes"/>
      <point x="405.177" y="-6"/>
      <point x="476" y="77.3416"/>
      <point x="476" y="217" type="curve" smooth="yes"/>
      <point x="476" y="316" type="line" smooth="yes"/>
      <point x="476" y="454.531"/>
      <point x="404.004" y="539"/>
      <point x="262" y="539" type="curve" smooth="yes"/>
      <point x="120.104" y="539"/>
      <point x="46" y="455.207"/>
      <point x="46" y="316" type="curve" smooth="yes"/>
      <point x="46" y="217" type="line" smooth="yes"/>
      <point x="46" y="76.6529"/>
      <point x="118.929" y="-6"/>
    </contour>
    <contour>
      <point x="262" y="106" type="curve" smooth="yes"/>
      <point x="194.356" y="106"/>
      <point x="172" y="158.454"/>
      <point x="172" y="218" type="curve" smooth="yes"/>
      <point x="172" y="314" type="line" smooth="yes"/>
      <point x="172" y="373.546"/>
      <point x="194.356" y="426"/>
      <point x="262" y="426" type="curve" smooth="yes"/>
      <point x="329.272" y="426"/>
      <point x="350" y="372.477"/>
      <point x="350" y="314" type="curve" smooth="yes"/>
      <point x="350" y="218" type="line" smooth="yes"/>
      <point x="350" y="159.523"/>
      <point x="329.272" y="106"/>
    </contour>
  </outline>
  <guideline angle="0" name="horizontal" x="0" y="532"/>
  <guideline angle="90" name="h1" x="262" y="0"/>
</glyph>
<glyph name="p" format="2">
  <advance width="527"/>
  <unicode hex="0070"/>
  <anchor x="281" y="602" name="top"/>
  <anchor x="236" y="-86" name="bottom"/>
  <outline>
    <contour>
      <point x="55" y="-160" type="line"/>
      <point x="182" y="-160" type="line"/>
      <point x="182" y="48" type="line"/>
      <point x="213" y="10"/>
      <point x="257" y="-6"/>
      <point x="305" y="-6" type="curve" smooth="yes"/>
      <point x="433" y="-6"/>
      <point x="481" y="101"/>
      <point x="481" y="214" type="curve" smooth="yes"/>
      <point x="481" y="319" type="line" smooth="yes"/>
      <point x="481" y="435"/>
      <point x="431" y="539"/>
      <point x="301" y="539" type="curve" smooth="yes"/>
      <point x="251" y="539"/>
      <point x="209" y="517"/>
      <point x="179" y="478" type="curve"/>
      <point x="179" y="532" type="line"/>
      <point x="55" y="532" type="line"/>
    </contour>
    <contour>
      <point x="272" y="106" type="curve" smooth="yes"/>
      <point x="205" y="106"/>
      <point x="181" y="159"/>
      <point x="181" y="218" type="curve" smooth="yes"/>
      <point x="181" y="314" type="line" smooth="yes"/>
      <point x="181" y="370"/>
      <point x="204" y="426"/>
      <point x="269" y="426" type="curve" smooth="yes"/>
      <point x="337" y="426"/>
      <point x="354" y="372"/>
      <point x="354" y="314" type="curve" smooth="yes"/>
      <point x="354" y="218" type="line" smooth="yes"/>
      <point x="354" y="162"/>
      <point x="339" y="106"/>
    </contour>
  </outline>
  <guideline angle="0" name="horizontal" x="0" y="532"/>
  <guideline angle="90" name="h1" x="281" y="0"/>
</glyph>
<glyph name="q" format="2">
  <advance width="526"/>
  <unicode hex="0071"/>
  <anchor x="252" y="602" name="top"/>
  <anchor x="236" y="-86" name="bottom"/>
  <outline>
    <contour>
      <point x="345" y="-160" type="line"/>
      <point x="471" y="-160" type="line"/>
      <point x="471" y="532" type="line"/>
      <point x="347" y="532" type="line"/>
      <point x="347" y="478" type="line"/>
      <point x="317.005" y="518.053"/>
      <point x="275.032" y="539"/>
      <point x="225" y="539" type="curve" smooth="yes"/>
      <point x="94.6585" y="539"/>
      <point x="46" y="434.116"/>
      <point x="46" y="319" type="curve" smooth="yes"/>
      <point x="46" y="214" type="line" smooth="yes"/>
      <point x="46" y="101.732"/>
      <point x="93.5477" y="-6"/>
      <point x="222" y="-6" type="curve" smooth="yes"/>
      <point x="270.35" y="-6"/>
      <point x="314.085" y="9.57683"/>
      <point x="345" y="48" type="curve"/>
    </contour>
    <contour>
      <point x="255" y="106" type="curve" smooth="yes"/>
      <point x="188.614" y="106"/>
      <point x="173" y="161.785"/>
      <point x="173" y="218" type="curve" smooth="yes"/>
      <point x="173" y="314" type="line" smooth="yes"/>
      <point x="173" y="372.249"/>
      <point x="190.464" y="426"/>
      <point x="258" y="426" type="curve" smooth="yes"/>
      <point x="323.48" y="426"/>
      <point x="345" y="370.574"/>
      <point x="345" y="314" type="curve" smooth="yes"/>
      <point x="345" y="218" type="line" smooth="yes"/>
      <point x="345" y="158.485"/>
      <point x="323.033" y="106"/>
    </contour>
  </outline>
  <guideline angle="90" name="h1" x="252" y="0"/>
</glyph>
<glyph name="ordfeminine" format="2">
  <advance width="361"/>
  <unicode hex="00AA"/>
  <outline>
    <contour>
      <point x="219" y="440" type="line"/>
      <point x="307" y="440" type="line"/>
      <point x="307" y="649" type="line" smooth="yes"/>
      <point x="307" y="726"/>
      <point x="260" y="766"/>
      <point x="172" y="766" type="curve" smooth="yes"/>
      <point x="95" y="766"/>
      <point x="46" y="727"/>
      <point x="46" y="666" type="curve" smooth="yes"/>
      <point x="46" y="663" type="line"/>
      <point x="131" y="663" type="line"/>
      <point x="131" y="666" type="line" smooth="yes"/>
      <point x="131" y="685"/>
      <point x="146" y="696"/>
      <point x="171" y="696" type="curve" smooth="yes"/>
      <point x="201" y="696"/>
      <point x="216" y="682"/>
      <point x="216" y="654" type="curve" smooth="yes"/>
      <point x="216" y="634" type="line"/>
      <point x="189" y="634" type="line" smooth="yes"/>
      <point x="83" y="634"/>
      <point x="37" y="605"/>
      <point x="37" y="540" type="curve" smooth="yes"/>
      <point x="37" y="476"/>
      <point x="78" y="436"/>
      <point x="144" y="436" type="curve" smooth="yes"/>
      <point x="175" y="436"/>
      <point x="195" y="444"/>
      <point x="219" y="466" type="curve"/>
    </contour>
    <contour>
      <point x="216" y="572" type="line"/>
      <point x="216" y="557" type="line" smooth="yes"/>
      <point x="216" y="525"/>
      <point x="201" y="511"/>
      <point x="166" y="511" type="curve" smooth="yes"/>
      <point x="140" y="511"/>
      <point x="125" y="523"/>
      <point x="125" y="543" type="curve" smooth="yes"/>
      <point x="125" y="562"/>
      <point x="139" y="572"/>
      <point x="167" y="572" type="curve" smooth="yes"/>
    </contour>
  </outline>
</glyph>
<glyph name="registered" format="2">
  <advance width="506"/>
  <unicode hex="00AE"/>
  <outline>
    <contour>
      <point x="253" y="315" type="curve" smooth="yes"/>
      <point x="363.194" y="315"/>
      <point x="446" y="399.522"/>
      <point x="446" y="512" type="curve" smooth="yes"/>
      <point x="446" y="623.488"/>
      <point x="362.782" y="708"/>
      <point x="253" y="708" type="curve" smooth="yes"/>
      <point x="144.381" y="708"/>
      <point x="60" y="622.307"/>
      <point x="60" y="512" type="curve" smooth="yes"/>
      <point x="60" y="400.457"/>
      <point x="143.722" y="315"/>
    </contour>
    <contour>
      <point x="253" y="356" type="curve" smooth="yes"/>
      <point x="165.002" y="356"/>
      <point x="103" y="420.482"/>
      <point x="103" y="512" type="curve" smooth="yes"/>
      <point x="103" y="603.918"/>
      <point x="164.047" y="667"/>
      <point x="253" y="667" type="curve" smooth="yes"/>
      <point x="341.027" y="667"/>
      <point x="402" y="603.572"/>
      <point x="402" y="512" type="curve" smooth="yes"/>
      <point x="402" y="419.479"/>
      <point x="341.369" y="356"/>
    </contour>
    <contour>
      <point x="174" y="404" type="line"/>
      <point x="227" y="404" type="line"/>
      <point x="227" y="484" type="line"/>
      <point x="253" y="484" type="line"/>
      <point x="291" y="404" type="line"/>
      <point x="348" y="404" type="line"/>
      <point x="305" y="493" type="line"/>
      <point x="330.142" y="505.042"/>
      <point x="343" y="525.683"/>
      <point x="343" y="554" type="curve" smooth="yes"/>
      <point x="343" y="597.685"/>
      <point x="314.752" y="622"/>
      <point x="264" y="622" type="curve" smooth="yes"/>
      <point x="174" y="622" type="line"/>
    </contour>
    <contour>
      <point x="227" y="529" type="line"/>
      <point x="227" y="577" type="line"/>
      <point x="261" y="577" type="line" smooth="yes"/>
      <point x="279.944" y="577"/>
      <point x="290" y="568.678"/>
      <point x="290" y="553" type="curve" smooth="yes"/>
      <point x="290" y="537.322"/>
      <point x="279.944" y="529"/>
      <point x="261" y="529" type="curve" smooth="yes"/>
    </contour>
  </outline>
</glyph>
<glyph name="mu" format="2">
  <advance width="532"/>
  <unicode hex="00B5"/>
  <outline>
    <contour>
      <point x="55" y="-160" type="line"/>
      <point x="181" y="-160" type="line"/>
      <point x="181" y="10" type="line"/>
      <point x="200.149" y="-0.531411"/>
      <point x="222.707" y="-6"/>
      <point x="247" y="-6" type="curve" smooth="yes"/>
      <point x="290.404" y="-6"/>
      <point x="326.188" y="12.2295"/>
      <point x="353" y="48" type="curve"/>
      <point x="353" y="0" type="line"/>
      <point x="477" y="0" type="line"/>
      <point x="477" y="532" type="line"/>
      <point x="350" y="532" type="line"/>
      <point x="350" y="201" type="line" smooth="yes"/>
      <point x="350" y="143.34"/>
      <point x="316.59" y="106"/>
      <point x="265" y="106" type="curve" smooth="yes"/>
      <point x="214.192" y="106"/>
      <point x="182" y="142.847"/>
      <point x="182" y="201" type="curve" smooth="yes"/>
      <point x="182" y="532" type="line"/>
      <point x="55" y="532" type="line"/>
    </contour>
  </outline>
</glyph>
<glyph name="paragraph" format="2">
  <advance width="659"/>
  <unicode hex="00B6"/>
  <outline>
    <contour>
      <point x="262" y="-160" type="line"/>
      <point x="375" y="-160" type="line"/>
      <point x="375" y="604" type="line"/>
      <point x="459" y="604" type="line"/>
      <point x="459" y="-160" type="line"/>
      <point x="568" y="-160" type="line"/>
      <point x="568" y="707" type="line"/>
      <point x="293" y="707" type="line" smooth="yes"/>
      <point x="156.067" y="707"/>
      <point x="60" y="614.644"/>
      <point x="60" y="483" type="curve" smooth="yes"/>
      <point x="60" y="359.423"/>
      <point x="142.508" y="267.929"/>
      <point x="262" y="259" type="curve"/>
    </contour>
  </outline>
</glyph>
<glyph name="Oslash" format="2">
  <advance width="614"/>
  <unicode hex="00D8"/>
  <anchor x="304" y="776" name="top"/>
  <outline>
    <component base="O"/>
    <contour>
      <point x="51" y="-20" type="line"/>
      <point x="125" y="-20" type="line"/>
      <point x="563" y="732" type="line"/>
      <point x="490" y="732" type="line"/>
    </contour>
  </outline>
  <guideline angle="90" name="h1" x="304" y="0"/>
</glyph>
<glyph name="eth" format="2">
  <advance width="521"/>
  <unicode hex="00F0"/>
  <outline>
    <contour>
      <point x="128" y="517" type="line"/>
      <point x="233" y="550" type="line"/>
      <point x="295" y="462" type="line"/>
      <point x="273.096" y="472.897"/>
      <point x="248.199" y="476"/>
      <point x="224" y="476" type="curve" smooth="yes"/>
      <point x="97.2506" y="476"/>
      <point x="46" y="372.086"/>
      <point x="46" y="259" type="curve" smooth="yes"/>
      <point x="46" y="214" type="line" smooth="yes"/>
      <point x="46" y="77.756"/>
      <point x="117.909" y="-11"/>
      <point x="259" y="-11" type="curve" smooth="yes"/>
      <point x="401.535" y="-11"/>
      <point x="474.845" y="76.5468"/>
      <point x="474.845" y="209.329" type="curve" smooth="yes"/>
      <point x="474.845" y="236.49" type="line" smooth="yes"/>
      <point x="474.845" y="372.867"/>
      <point x="443.022" y="441.663"/>
      <point x="371.46" y="542.785" type="curve" smooth="yes"/>
      <point x="343" y="583" type="line"/>
      <point x="416" y="605" type="line"/>
      <point x="390" y="686" type="line"/>
      <point x="292" y="655" type="line"/>
      <point x="252" y="712" type="line"/>
      <point x="121" y="712" type="line"/>
      <point x="183" y="623" type="line"/>
      <point x="102" y="598" type="line"/>
    </contour>
    <contour>
      <point x="261" y="99" type="curve" smooth="yes"/>
      <point x="187.431" y="99"/>
      <point x="164" y="149.528"/>
      <point x="164" y="216" type="curve" smooth="yes"/>
      <point x="164" y="263" type="line" smooth="yes"/>
      <point x="164" y="329.133"/>
      <point x="189.834" y="374"/>
      <point x="261" y="374" type="curve" smooth="yes"/>
      <point x="331.92" y="374"/>
      <point x="356" y="325.55"/>
      <point x="356" y="261" type="curve" smooth="yes"/>
      <point x="356" y="217" type="line" smooth="yes"/>
      <point x="356" y="151.953"/>
      <point x="334.089" y="99"/>
    </contour>
  </outline>
</glyph>
<glyph name="divide" format="2">
  <advance width="541"/>
  <unicode hex="00F7"/>
  <outline>
    <contour>
      <point x="270" y="385" type="curve" smooth="yes"/>
      <point x="308.523" y="385"/>
      <point x="339" y="415.477"/>
      <point x="339" y="454" type="curve" smooth="yes"/>
      <point x="339" y="492.122"/>
      <point x="307.791" y="522"/>
      <point x="270" y="522" type="curve" smooth="yes"/>
      <point x="231.593" y="522"/>
      <point x="203" y="492.019"/>
      <point x="203" y="454" type="curve" smooth="yes"/>
      <point x="203" y="415.547"/>
      <point x="230.806" y="385"/>
    </contour>
    <contour>
      <point x="49" y="224" type="line"/>
      <point x="493" y="224" type="line"/>
      <point x="493" y="341" type="line"/>
      <point x="49" y="341" type="line"/>
    </contour>
    <contour>
      <point x="270" y="44" type="curve" smooth="yes"/>
      <point x="308.745" y="44"/>
      <point x="339" y="74.1975"/>
      <point x="339" y="113" type="curve" smooth="yes"/>
      <point x="339" y="151.122"/>
      <point x="307.791" y="181"/>
      <point x="270" y="181" type="curve" smooth="yes"/>
      <point x="231.593" y="181"/>
      <point x="203" y="151.019"/>
      <point x="203" y="113" type="curve" smooth="yes"/>
      <point x="203" y="74.5466"/>
      <point x="230.806" y="44"/>
    </contour>
  </outline>
</glyph>
<glyph name="thorn" format="2">
  <advance width="527"/>
  <unicode hex="00FE"/>
  <outline>
    <contour>
      <point x="55" y="-160" type="line"/>
      <point x="179" y="-160" type="line"/>
      <point x="179" y="49" type="line"/>
      <point x="210.794" y="9.73975"/>
      <point x="255.487" y="-6"/>
      <point x="305" y="-6" type="curve" smooth="yes"/>
      <point x="433.452" y="-6"/>
      <point x="481" y="101.732"/>
      <point x="481" y="214" type="curve" smooth="yes"/>
      <point x="481" y="319" type="line" smooth="yes"/>
      <point x="481" y="434.98"/>
      <point x="432.004" y="539"/>
      <point x="301" y="539" type="curve" smooth="yes"/>
      <point x="251.725" y="539"/>
      <point x="210.861" y="517.873"/>
      <point x="182" y="478" type="curve"/>
      <point x="182" y="707" type="line"/>
      <point x="55" y="707" type="line"/>
    </contour>
    <contour>
      <point x="272" y="106" type="curve" smooth="yes"/>
      <point x="204.931" y="106"/>
      <point x="181" y="158.651"/>
      <point x="181" y="218" type="curve" smooth="yes"/>
      <point x="181" y="314" type="line" smooth="yes"/>
      <point x="181" y="370.348"/>
      <point x="203.97" y="426"/>
      <point x="269" y="426" type="curve" smooth="yes"/>
      <point x="336.708" y="426"/>
      <point x="354" y="371.565"/>
      <point x="354" y="314" type="curve" smooth="yes"/>
      <point x="354" y="218" type="line" smooth="yes"/>
      <point x="354" y="161.782"/>
      <point x="338.384" y="106"/>
    </contour>
  </outline>
</glyph>
<glyph name="kgreenlandic" format="2">
  <advance width="532"/>
  <unicode hex="0138"/>
  <anchor x="238" y="773" name="top"/>
  <anchor x="260" y="-86" name="bottom"/>
  <outline>
    <contour>
      <point x="55" y="0" type="line"/>
      <point x="182" y="0" type="line"/>
      <point x="182" y="532" type="line"/>
      <point x="55" y="492" type="line"/>
    </contour>
    <contour>
      <point x="172.219" y="146.451" type="line"/>
      <point x="505" y="532" type="line"/>
      <point x="354" y="532" type="line"/>
      <point x="172.219" y="298.879" type="line"/>
    </contour>
    <contour>
      <point x="365" y="0" type="line"/>
      <point x="518" y="0" type="line"/>
      <point x="315.025" y="334.128" type="line"/>
      <point x="231.444" y="236.373" type="line"/>
    </contour>
  </outline>
  <guideline angle="90" name="vertical" x="238" y="0"/>
  <guideline angle="0" name="horizontal" x="0" y="773"/>
</glyph>
<glyph name="Lcaron" format="2">
  <advance width="528"/>
  <unicode hex="013D"/>
  <outline>
    <component base="L"/>
    <contour>
      <point x="309" y="480" type="line"/>
      <point x="409" y="561" type="line"/>
      <point x="409" y="706" type="line"/>
      <point x="309" y="706" type="line"/>
    </contour>
  </outline>
</glyph>
<glyph name="longs" format="2">
  <advance width="304"/>
  <unicode hex="017F"/>
  <anchor x="143" y="776" name="top"/>
  <outline>
    <contour>
      <point x="55" y="0" type="line"/>
      <point x="181" y="0" type="line"/>
      <point x="181" y="443" type="line"/>
      <point x="276" y="443" type="line"/>
      <point x="276" y="532" type="line"/>
      <point x="181" y="532" type="line"/>
      <point x="181" y="547" type="line" smooth="yes"/>
      <point x="181" y="600.476"/>
      <point x="192.837" y="620.898"/>
      <point x="261.482" y="620.898" type="curve" smooth="yes"/>
      <point x="276" y="620.898" type="line"/>
      <point x="276" y="707" type="line"/>
      <point x="203" y="707" type="line" smooth="yes"/>
      <point x="112.413" y="707"/>
      <point x="55" y="656.254"/>
      <point x="55" y="564" type="curve" smooth="yes"/>
    </contour>
  </outline>
  <guideline angle="90" name="h1" x="143" y="0"/>
</glyph>
<glyph name="Schwa" format="2">
  <advance width="613"/>
  <unicode hex="018F"/>
  <outline>
    <contour>
      <point x="183.991" y="475" type="line"/>
      <point x="183.991" y="479.068" type="line" smooth="yes"/>
      <point x="183.991" y="554.665"/>
      <point x="224.56" y="597"/>
      <point x="301.973" y="597" type="curve" smooth="yes"/>
      <point x="403.049" y="597"/>
      <point x="426.973" y="520.367"/>
      <point x="426.973" y="434" type="curve" smooth="yes"/>
      <point x="426.973" y="281" type="line" smooth="yes"/>
      <point x="426.973" y="194.747"/>
      <point x="408.533" y="110"/>
      <point x="303.973" y="110" type="curve" smooth="yes"/>
      <point x="230.297" y="110"/>
      <point x="184.045" y="162.576"/>
      <point x="184.045" y="246.327" type="curve" smooth="yes"/>
      <point x="184.045" y="400.525" type="line"/>
      <point x="50" y="400.525" type="line"/>
      <point x="50" y="245.774" type="line" smooth="yes"/>
      <point x="50" y="82.7864"/>
      <point x="140.5" y="-8"/>
      <point x="302.973" y="-8" type="curve" smooth="yes"/>
      <point x="486.387" y="-8"/>
      <point x="561.973" y="99.8362"/>
      <point x="561.973" y="274" type="curve" smooth="yes"/>
      <point x="561.973" y="436" type="line" smooth="yes"/>
      <point x="561.973" y="608.882"/>
      <point x="487.497" y="717"/>
      <point x="304.973" y="717" type="curve" smooth="yes"/>
      <point x="154.18" y="717"/>
      <point x="51.9732" y="639.538"/>
      <point x="51.9732" y="482" type="curve" smooth="yes"/>
      <point x="51.9732" y="475" type="line"/>
    </contour>
    <contour>
      <point x="85.1714" y="400.5" type="line"/>
      <point x="85.1714" y="283.5" type="line"/>
      <point x="462.004" y="283.5" type="line"/>
      <point x="462.004" y="400.5" type="line"/>
    </contour>
  </outline>
</glyph>
<glyph name="lbar" format="2">
  <advance width="293"/>
  <unicode hex="019A"/>
  <outline>
    <component base="l"/>
    <contour>
      <point x="10" y="295" type="line"/>
      <point x="272" y="295" type="line"/>
      <point x="272" y="413" type="line"/>
      <point x="10" y="413" type="line"/>
    </contour>
  </outline>
</glyph>
<glyph name="Lbar" format="2">
  <advance width="528"/>
  <unicode hex="023D"/>
  <outline>
    <component base="L"/>
    <contour>
      <point x="10" y="375" type="line"/>
      <point x="292" y="375" type="line"/>
      <point x="292" y="493" type="line"/>
      <point x="10" y="493" type="line"/>
    </contour>
  </outline>
</glyph>
<glyph name="obarred" format="2">
  <advance width="522"/>
  <unicode hex="0275"/>
  <outline>
    <component base="o"/>
    <contour>
      <point x="130" y="210" type="line"/>
      <point x="412" y="210" type="line"/>
      <point x="412" y="328" type="line"/>
      <point x="130" y="328" type="line"/>
    </contour>
  </outline>
</glyph>
<glyph name="caron" format="2">
  <advance width="512"/>
  <unicode hex="02C7"/>
  <outline>
    <contour>
      <point x="209" y="584" type="line"/>
      <point x="302" y="584" type="line"/>
      <point x="420" y="738" type="line"/>
      <point x="321" y="738" type="line"/>
      <point x="256" y="658" type="line"/>
      <point x="191" y="738" type="line"/>
      <point x="91" y="738" type="line"/>
    </contour>
  </outline>
</glyph>
<glyph name="hungarumlaut" format="2">
  <advance width="512"/>
  <unicode hex="02DD"/>
  <outline>
    <contour>
      <point x="97" y="602" type="line"/>
      <point x="207" y="602" type="line"/>
      <point x="348" y="738" type="line"/>
      <point x="208" y="738" type="line"/>
    </contour>
    <contour>
      <point x="297" y="602" type="line"/>
      <point x="407" y="602" type="line"/>
      <point x="548" y="738" type="line"/>
      <point x="408" y="738" type="line"/>
    </contour>
  </outline>
</glyph>
<glyph name="uni0304" format="2">
  <unicode hex="0304"/>
  <anchor x="0" y="602" name="_top"/>
  <outline>
    <contour>
      <point x="-144" y="604" type="line"/>
      <point x="144" y="604" type="line"/>
      <point x="144" y="717" type="line"/>
      <point x="-144" y="717" type="line"/>
    </contour>
  </outline>
  <guideline angle="90" name="h1" x="0" y="0"/>
</glyph>
<glyph name="uni0312" format="2">
  <unicode hex="0312"/>
  <outline>
    <contour>
      <point x="-95" y="602" type="line"/>
      <point x="46" y="602" type="line"/>
      <point x="156" y="738" type="line"/>
      <point x="47" y="738" type="line"/>
    </contour>
  </outline>
</glyph>
<glyph name="alpha" format="2">
  <advance width="644"/>
  <unicode hex="03B1"/>
  <outline>
    <contour>
      <point x="578" y="122" type="line"/>
      <point x="519.074" y="124.228"/>
      <point x="491" y="167.338"/>
      <point x="491" y="223" type="curve" smooth="yes"/>
      <point x="491" y="309" type="line" smooth="yes"/>
      <point x="491" y="364.662"/>
      <point x="519.074" y="407.772"/>
      <point x="578" y="410" type="curve"/>
      <point x="578" y="517" type="line"/>
      <point x="519.371" y="517.019"/>
      <point x="480.351" y="501.558"/>
      <point x="435" y="466" type="curve"/>
      <point x="390.94" y="519.646"/>
      <point x="329.907" y="539"/>
      <point x="262" y="539" type="curve" smooth="yes"/>
      <point x="118.256" y="539"/>
      <point x="46" y="456.505"/>
      <point x="46" y="316" type="curve" smooth="yes"/>
      <point x="46" y="217" type="line" smooth="yes"/>
      <point x="46" y="75.115"/>
      <point x="117.099" y="-6"/>
      <point x="262" y="-6" type="curve" smooth="yes"/>
      <point x="325.687" y="-6"/>
      <point x="396.259" y="12.4481"/>
      <point x="435" y="67" type="curve"/>
      <point x="468.419" y="30.0107"/>
      <point x="530.32" y="15.9818"/>
      <point x="578" y="16" type="curve"/>
    </contour>
    <contour>
      <point x="262" y="106" type="curve" smooth="yes"/>
      <point x="192.927" y="106"/>
      <point x="172" y="156.642"/>
      <point x="172" y="218" type="curve" smooth="yes"/>
      <point x="172" y="314" type="line" smooth="yes"/>
      <point x="172" y="375.358"/>
      <point x="192.927" y="426"/>
      <point x="262" y="426" type="curve" smooth="yes"/>
      <point x="329.918" y="426"/>
      <point x="360" y="377.231"/>
      <point x="360" y="314" type="curve" smooth="yes"/>
      <point x="360" y="218" type="line" smooth="yes"/>
      <point x="360" y="154.769"/>
      <point x="329.918" y="106"/>
    </contour>
  </outline>
</glyph>
<glyph name="Eukrcyr" format="2">
  <advance width="612"/>
  <unicode hex="0404"/>
  <anchor x="305" y="776" name="top"/>
  <outline>
    <contour>
      <point x="428.982" y="234" type="line"/>
      <point x="428.982" y="229.932" type="line" smooth="yes"/>
      <point x="428.982" y="154.335"/>
      <point x="388.414" y="112"/>
      <point x="311" y="112" type="curve" smooth="yes"/>
      <point x="209.924" y="112"/>
      <point x="186" y="188.633"/>
      <point x="186" y="275" type="curve" smooth="yes"/>
      <point x="186" y="428" type="line" smooth="yes"/>
      <point x="186" y="514.253"/>
      <point x="204.44" y="599"/>
      <point x="309" y="599" type="curve" smooth="yes"/>
      <point x="383.821" y="599"/>
      <point x="428.928" y="555.147"/>
      <point x="428.928" y="482.673" type="curve" smooth="yes"/>
      <point x="428.928" y="475" type="line"/>
      <point x="562.973" y="475" type="line"/>
      <point x="562.973" y="483.226" type="line" smooth="yes"/>
      <point x="562.973" y="636.43"/>
      <point x="461.248" y="717"/>
      <point x="310" y="717" type="curve" smooth="yes"/>
      <point x="126.586" y="717"/>
      <point x="51" y="609.164"/>
      <point x="51" y="435" type="curve" smooth="yes"/>
      <point x="51" y="273" type="line" smooth="yes"/>
      <point x="51" y="100.118"/>
      <point x="125.476" y="-8"/>
      <point x="308" y="-8" type="curve" smooth="yes"/>
      <point x="458.793" y="-8"/>
      <point x="561" y="69.4617"/>
      <point x="561" y="227" type="curve" smooth="yes"/>
      <point x="561" y="234" type="line"/>
    </contour>
    <contour>
      <point x="391.196" y="298.5" type="line"/>
      <point x="150.969" y="298.5" type="line"/>
      <point x="150.969" y="415.5" type="line"/>
      <point x="391.196" y="415.5" type="line"/>
    </contour>
  </outline>
  <guideline angle="90" name="h1" x="305" y="0"/>
</glyph>
<glyph name="Zecyr" format="2">
  <advance width="630"/>
  <unicode hex="0417"/>
  <outline>
    <contour>
      <point x="61" y="199" type="line"/>
      <point x="61" y="191" type="line" smooth="yes"/>
      <point x="61" y="72.1045"/>
      <point x="170.087" y="-8"/>
      <point x="332" y="-8" type="curve" smooth="yes"/>
      <point x="462.605" y="-8"/>
      <point x="579" y="63.5731"/>
      <point x="579" y="199" type="curve" smooth="yes"/>
      <point x="579" y="212" type="line" smooth="yes"/>
      <point x="579" y="277.791"/>
      <point x="543.837" y="336.513"/>
      <point x="481" y="364" type="curve"/>
      <point x="534.726" y="390.811"/>
      <point x="570" y="445.579"/>
      <point x="570" y="505" type="curve" smooth="yes"/>
      <point x="570" y="514" type="line" smooth="yes"/>
      <point x="570" y="648.111"/>
      <point x="447.352" y="717"/>
      <point x="321" y="717" type="curve" smooth="yes"/>
      <point x="163.56" y="717"/>
      <point x="60.7709" y="639.676"/>
      <point x="60.7709" y="515.421" type="curve" smooth="yes"/>
      <point x="60.7709" y="509.54" type="line"/>
      <point x="195.834" y="509.54" type="line"/>
      <point x="195.834" y="515.421" type="line" smooth="yes"/>
      <point x="195.834" y="567.707"/>
      <point x="247.203" y="600"/>
      <point x="315.5" y="600" type="curve" smooth="yes"/>
      <point x="387.664" y="600"/>
      <point x="435" y="562.765"/>
      <point x="435" y="506" type="curve" smooth="yes"/>
      <point x="435" y="500" type="line" smooth="yes"/>
      <point x="435" y="444.76"/>
      <point x="394.349" y="418"/>
      <point x="341" y="418" type="curve" smooth="yes"/>
      <point x="247.73" y="418" type="line"/>
      <point x="247.73" y="301" type="line"/>
      <point x="349" y="301" type="line" smooth="yes"/>
      <point x="408.005" y="301"/>
      <point x="445" y="270.045"/>
      <point x="445" y="208" type="curve" smooth="yes"/>
      <point x="445" y="200" type="line" smooth="yes"/>
      <point x="445" y="142.423"/>
      <point x="388.42" y="109"/>
      <point x="329.46" y="109" type="curve" smooth="yes"/>
      <point x="252.821" y="109"/>
      <point x="196" y="145.189"/>
      <point x="196" y="194" type="curve" smooth="yes"/>
      <point x="196" y="199" type="line"/>
    </contour>
  </outline>
</glyph>
<glyph name="Efcyr" format="2">
  <advance width="726"/>
  <unicode hex="0424"/>
  <anchor x="307" y="776" name="top"/>
  <outline>
    <contour>
      <point x="306" y="182" type="line"/>
      <point x="226" y="182"/>
      <point x="186" y="235"/>
      <point x="186" y="344" type="curve" smooth="yes"/>
      <point x="186" y="367" type="line" smooth="yes"/>
      <point x="186" y="482"/>
      <point x="225" y="537"/>
      <point x="306" y="537" type="curve"/>
      <point x="306" y="657" type="line"/>
      <point x="138" y="657"/>
      <point x="51" y="559"/>
      <point x="51" y="374" type="curve" smooth="yes"/>
      <point x="51" y="342" type="line" smooth="yes"/>
      <point x="51" y="158"/>
      <point x="140" y="62"/>
      <point x="306" y="62" type="curve"/>
    </contour>
    <contour>
      <point x="296" y="0" type="line"/>
      <point x="430" y="0" type="line"/>
      <point x="430" y="707" type="line"/>
      <point x="296" y="707" type="line"/>
    </contour>
    <contour>
      <point x="420" y="62" type="line"/>
      <point x="588" y="62"/>
      <point x="675" y="160"/>
      <point x="675" y="345" type="curve" smooth="yes"/>
      <point x="675" y="377" type="line" smooth="yes"/>
      <point x="675" y="561"/>
      <point x="586" y="657"/>
      <point x="420" y="657" type="curve"/>
      <point x="420" y="537" type="line"/>
      <point x="500" y="537"/>
      <point x="540" y="484"/>
      <point x="540" y="375" type="curve" smooth="yes"/>
      <point x="540" y="352" type="line" smooth="yes"/>
      <point x="540" y="237"/>
      <point x="501" y="182"/>
      <point x="420" y="182" type="curve"/>
    </contour>
  </outline>
  <guideline angle="90" name="h1" x="307" y="0"/>
</glyph>
<glyph name="Softcyr" format="2">
  <advance width="607"/>
  <unicode hex="042C"/>
  <anchor x="284" y="776" name="top"/>
  <outline>
    <contour>
      <point x="174.82" y="0" type="line"/>
      <point x="325" y="0" type="line" smooth="yes"/>
      <point x="467.613" y="0"/>
      <point x="556" y="85.3257"/>
      <point x="556" y="223" type="curve" smooth="yes"/>
      <point x="556" y="355.166"/>
      <point x="466.344" y="439"/>
      <point x="325" y="439" type="curve" smooth="yes"/>
      <point x="174.82" y="439" type="line"/>
      <point x="174.82" y="321" type="line"/>
      <point x="318" y="321" type="line" smooth="yes"/>
      <point x="382.319" y="321"/>
      <point x="422" y="283.609"/>
      <point x="422" y="223" type="curve" smooth="yes"/>
      <point x="422" y="154.721"/>
      <point x="384.991" y="117"/>
      <point x="318" y="117" type="curve" smooth="yes"/>
      <point x="174.82" y="117" type="line"/>
    </contour>
    <contour>
      <point x="60" y="0" type="line"/>
      <point x="195" y="0" type="line"/>
      <point x="195" y="707" type="line"/>
      <point x="60" y="707" type="line"/>
    </contour>
  </outline>
  <guideline angle="90" name="h1" x="284" y="0"/>
  <guideline angle="90" name="h1" x="284" y="0"/>
</glyph>
<glyph name="decyr" format="2">
  <advance width="606"/>
  <unicode hex="0434"/>
  <outline>
    <contour>
      <point x="459.86" y="-170" type="line"/>
      <point x="585.86" y="-170" type="line"/>
      <point x="585.86" y="111" type="line"/>
      <point x="439.86" y="111" type="line"/>
      <point x="439.86" y="0.418083" type="line"/>
      <point x="459.86" y="0.418083" type="line"/>
    </contour>
    <contour>
      <point x="20.6234" y="-169.821" type="line"/>
      <point x="146.623" y="-169.821" type="line"/>
      <point x="146.623" y="110.944" type="line"/>
      <point x="20.6234" y="110.943" type="line"/>
    </contour>
    <contour>
      <point x="389" y="0" type="line"/>
      <point x="515" y="0" type="line"/>
      <point x="515" y="532" type="line"/>
      <point x="389" y="532" type="line"/>
    </contour>
    <contour>
      <point x="77.0295" y="29.2144" type="line"/>
      <point x="162.602" y="29.2144"/>
      <point x="234.939" y="107.54"/>
      <point x="244.41" y="210.45" type="curve" smooth="yes"/>
      <point x="274" y="531.994" type="line"/>
      <point x="149" y="531.994" type="line"/>
      <point x="118.247" y="226.093" type="line" smooth="yes"/>
      <point x="111.221" y="156.205"/>
      <point x="84.8087" y="111.065"/>
      <point x="50.8699" y="110.943" type="curve"/>
    </contour>
    <contour>
      <point x="80.8079" y="0" type="line"/>
      <point x="428.858" y="0.4249" type="line"/>
      <point x="428.858" y="111.425" type="line"/>
      <point x="80.8079" y="111.425" type="line"/>
    </contour>
    <contour>
      <point x="214" y="445" type="line"/>
      <point x="428" y="445" type="line"/>
      <point x="428" y="532" type="line"/>
      <point x="214" y="532" type="line"/>
    </contour>
  </outline>
  <guideline angle="84.7422" x="259" y="369"/>
  <guideline angle="264.33" x="149" y="532"/>
</glyph>
<glyph name="zhecyr" format="2">
  <advance width="817"/>
  <unicode hex="0436"/>
  <anchor x="647" y="707" name="top"/>
  <outline>
    <component base="kacyr" xOffset="290"/>
    <contour>
      <point x="366.282" y="258" type="line"/>
      <point x="185" y="532" type="line"/>
      <point x="34" y="532" type="line"/>
      <point x="228" y="258" type="line"/>
    </contour>
    <contour>
      <point x="162" y="0" type="line"/>
      <point x="303" y="258" type="line"/>
      <point x="186" y="323" type="line"/>
      <point x="9" y="0" type="line"/>
    </contour>
    <contour>
      <point x="397" y="222" type="line"/>
      <point x="397" y="333" type="line"/>
      <point x="208" y="333" type="line"/>
      <point x="208" y="222" type="line"/>
    </contour>
  </outline>
  <guideline angle="90" name="vertical" x="115" y="0"/>
  <guideline angle="0" name="horizontal" x="0" y="707"/>
  <guideline angle="90" name="vertical" x="647" y="0"/>
  <guideline angle="0" name="horizontal" x="0" y="707"/>
</glyph>
<glyph name="kacyr" format="2">
  <advance width="527"/>
  <unicode hex="043A"/>
  <anchor x="247" y="602" name="top"/>
  <outline>
    <contour>
      <point x="55" y="0" type="line"/>
      <point x="182" y="0" type="line"/>
      <point x="182" y="532" type="line"/>
      <point x="55" y="532" type="line"/>
    </contour>
    <contour>
      <point x="160.718" y="258" type="line"/>
      <point x="299" y="258" type="line"/>
      <point x="493" y="532" type="line"/>
      <point x="342" y="532" type="line"/>
    </contour>
    <contour>
      <point x="365" y="0" type="line"/>
      <point x="518" y="0" type="line"/>
      <point x="341" y="323" type="line"/>
      <point x="224" y="258" type="line"/>
    </contour>
    <contour>
      <point x="130" y="222" type="line"/>
      <point x="319" y="222" type="line"/>
      <point x="319" y="333" type="line"/>
      <point x="130" y="333" type="line"/>
    </contour>
  </outline>
  <guideline angle="0" x="0" y="343"/>
  <guideline angle="0" x="0" y="258"/>
  <guideline angle="0" x="0" y="277"/>
  <guideline angle="90" name="h1" x="247" y="0"/>
</glyph>
<glyph name="ereversedcyr" format="2">
  <advance width="517"/>
  <unicode hex="044D"/>
  <anchor x="262" y="602" name="top"/>
  <outline>
    <component base="c" xScale="-1" xOffset="517"/>
    <contour>
      <point x="231.519" y="229" type="line"/>
      <point x="369" y="229" type="line"/>
      <point x="369" y="340" type="line"/>
      <point x="231.519" y="340" type="line"/>
    </contour>
  </outline>
  <guideline angle="0" name="horizontal" x="0" y="532"/>
  <guideline angle="90" name="h1" x="262" y="0"/>
</glyph>
<glyph name="yucyr" format="2">
  <advance width="732"/>
  <unicode hex="044E"/>
  <anchor x="434" y="602" name="top"/>
  <outline>
    <component base="dotlessi" xOffset="-5"/>
    <component base="o" xOffset="210"/>
    <contour>
      <point x="131" y="229" type="line"/>
      <point x="339" y="229" type="line"/>
      <point x="339" y="340" type="line"/>
      <point x="131" y="340" type="line"/>
    </contour>
  </outline>
  <guideline angle="0" name="horizontal" x="0" y="532"/>
  <guideline angle="90" name="h1" x="118" y="0"/>
  <guideline angle="0" name="horizontal" x="0" y="532"/>
  <guideline angle="90" name="h1" x="436" y="0"/>
</glyph>
<glyph name="ellipsis" format="2">
  <advance width="791"/>
  <unicode hex="2026"/>
  <outline>
    <contour>
      <point x="39" y="0" type="line"/>
      <point x="181" y="0" type="line"/>
      <point x="181" y="145" type="line"/>
      <point x="39" y="145" type="line"/>
    </contour>
    <contour>
      <point x="610" y="0" type="line"/>
      <point x="753" y="0" type="line"/>
      <point x="753" y="145" type="line"/>
      <point x="610" y="145" type="line"/>
    </contour>
    <contour>
      <point x="325" y="0" type="line"/>
      <point x="467" y="0" type="line"/>
      <point x="467" y="145" type="line"/>
      <point x="325" y="145" type="line"/>
    </contour>
  </outline>
</glyph>
<glyph name="Cacute.loclPLK" format="2">
  <advance width="614"/>
  <outline>
    <component base="C"/>
    <contour>
      <point x="251" y="789" type="line"/>
      <point x="360" y="789" type="line"/>
      <point x="424" y="925" type="line"/>
      <point x="283" y="925" type="line"/>
    </contour>
  </outline>
</glyph>
<glyph name="Sacute.loclPLK" format="2">
  <advance width="561"/>
  <outline>
    <component base="S"/>
    <contour>
      <point x="224" y="789" type="line"/>
      <point x="333" y="789" type="line"/>
      <point x="397" y="925" type="line"/>
      <point x="256" y="925" type="line"/>
    </contour>
  </outline>
</glyph>
<glyph name="five.tlf" format="2">
  <advance width="524"/>
  <outline>
    <contour>
      <point x="63.0397" y="178" type="line"/>
      <point x="63.0397" y="170.11" type="line" smooth="yes"/>
      <point x="63.0397" y="53.2984"/>
      <point x="134.031" y="-11"/>
      <point x="263" y="-11" type="curve" smooth="yes"/>
      <point x="392.781" y="-11"/>
      <point x="470" y="65.8456"/>
      <point x="470" y="195" type="curve" smooth="yes"/>
      <point x="470" y="261" type="line" smooth="yes"/>
      <point x="470" y="391.584"/>
      <point x="405.221" y="465"/>
      <point x="290" y="465" type="curve" smooth="yes"/>
      <point x="251.146" y="465"/>
      <point x="215.376" y="453.313"/>
      <point x="189" y="432" type="curve"/>
      <point x="189" y="592" type="line"/>
      <point x="455" y="592" type="line"/>
      <point x="455" y="707" type="line"/>
      <point x="73" y="707" type="line"/>
      <point x="73" y="304" type="line"/>
      <point x="189" y="304" type="line"/>
      <point x="201.859" y="334.268"/>
      <point x="228.826" y="352"/>
      <point x="262" y="352" type="curve" smooth="yes"/>
      <point x="318.184" y="352"/>
      <point x="340.428" y="318.735"/>
      <point x="340.428" y="234.712" type="curve" smooth="yes"/>
      <point x="340.428" y="227.806" type="line" smooth="yes"/>
      <point x="340.428" y="137.434"/>
      <point x="318.62" y="102"/>
      <point x="263" y="102" type="curve" smooth="yes"/>
      <point x="215.287" y="102"/>
      <point x="186.079" y="128.531"/>
      <point x="186.079" y="171.872" type="curve" smooth="yes"/>
      <point x="186.079" y="178" type="line"/>
    </contour>
  </outline>
</glyph>
<glyph name="icyr.loclBGR" format="2">
  <advance width="532"/>
  <anchor x="266" y="602" name="top"/>
  <outline>
    <contour>
      <point x="351" y="242.191" type="line"/>
      <point x="351" y="221" type="line" smooth="yes"/>
      <point x="351" y="160.148"/>
      <point x="339.52" y="106"/>
      <point x="266" y="106" type="curve" smooth="yes"/>
      <point x="194.307" y="106"/>
      <point x="181" y="161.511"/>
      <point x="181" y="221" type="curve" smooth="yes"/>
      <point x="181" y="532" type="line"/>
      <point x="55" y="532" type="line"/>
      <point x="55" y="215" type="line" smooth="yes"/>
      <point x="55" y="75.0582"/>
      <point x="109.352" y="-6"/>
      <point x="226" y="-6" type="curve" smooth="yes"/>
      <point x="343.678" y="-6"/>
      <point x="397" y="89.1069"/>
      <point x="397" y="215" type="curve" smooth="yes"/>
      <point x="397" y="242.191" type="line"/>
    </contour>
    <contour>
      <point x="355" y="0" type="line"/>
      <point x="477" y="0" type="line"/>
      <point x="477" y="532" type="line"/>
      <point x="351" y="532" type="line"/>
      <point x="351" y="52" type="line"/>
      <point x="355" y="52" type="line"/>
    </contour>
  </outline>
  <guideline angle="90" name="h1" x="266" y="0"/>
</glyph>
<glyph name="kacyr.loclBGR" format="2">
  <advance width="532"/>
  <outline>
    <contour>
      <point x="55" y="0" type="line"/>
      <point x="182" y="0" type="line"/>
      <point x="182" y="707" type="line"/>
      <point x="55" y="707" type="line"/>
    </contour>
    <contour>
      <point x="160.718" y="258" type="line"/>
      <point x="299" y="258" type="line"/>
      <point x="493" y="532" type="line"/>
      <point x="342" y="532" type="line"/>
    </contour>
    <contour>
      <point x="365" y="0" type="line"/>
      <point x="518" y="0" type="line"/>
      <point x="341" y="323" type="line"/>
      <point x="224" y="258" type="line"/>
    </contour>
    <contour>
      <point x="130" y="222" type="line"/>
      <point x="319" y="222" type="line"/>
      <point x="319" y="333" type="line"/>
      <point x="130" y="333" type="line"/>
    </contour>
  </outline>
</glyph>
<glyph name="oacute.loclPLK" format="2">
  <advance width="522"/>
  <outline>
    <contour>
      <point x="262" y="-6" type="curve" smooth="yes"/>
      <point x="405.177" y="-6"/>
      <point x="476" y="77.3416"/>
      <point x="476" y="217" type="curve" smooth="yes"/>
      <point x="476" y="316" type="line" smooth="yes"/>
      <point x="476" y="454.531"/>
      <point x="404.004" y="539"/>
      <point x="262" y="539" type="curve" smooth="yes"/>
      <point x="120.104" y="539"/>
      <point x="46" y="455.207"/>
      <point x="46" y="316" type="curve" smooth="yes"/>
      <point x="46" y="217" type="line" smooth="yes"/>
      <point x="46" y="76.6529"/>
      <point x="118.929" y="-6"/>
    </contour>
    <contour>
      <point x="262" y="106" type="curve" smooth="yes"/>
      <point x="194.356" y="106"/>
      <point x="172" y="158.454"/>
      <point x="172" y="218" type="curve" smooth="yes"/>
      <point x="172" y="314" type="line" smooth="yes"/>
      <point x="172" y="373.546"/>
      <point x="194.356" y="426"/>
      <point x="262" y="426" type="curve" smooth="yes"/>
      <point x="329.272" y="426"/>
      <point x="350" y="372.477"/>
      <point x="350" y="314" type="curve" smooth="yes"/>
      <point x="350" y="218" type="line" smooth="yes"/>
      <point x="350" y="159.523"/>
      <point x="329.272" y="106"/>
    </contour>
    <contour>
      <point x="206" y="602" type="line"/>
      <point x="315" y="602" type="line"/>
      <point x="379" y="738" type="line"/>
      <point x="238" y="738" type="line"/>
    </contour>
  </outline>
</glyph>
<glyph name="seven.osf" format="2">
  <advance width="467"/>
  <outline>
    <contour>
      <point x="77" y="-160" type="line"/>
      <point x="212" y="-160" type="line"/>
      <point x="427" y="430" type="line"/>
      <point x="427" y="547" type="line"/>
      <point x="21" y="547" type="line"/>
      <point x="21" y="430" type="line"/>
      <point x="296" y="430" type="line"/>
    </contour>
  </outline>
</glyph>
<glyph name="shchacyr.loclBGR" format="2">
  <advance width="856"/>
  <outline>
    <component base="shacyr.loclBGR"/>
    <contour>
      <point x="729.86" y="-170" type="line"/>
      <point x="855.86" y="-170" type="line"/>
      <point x="855.86" y="111" type="line"/>
      <point x="709.86" y="111" type="line"/>
      <point x="709.86" y="0.418083" type="line"/>
      <point x="729.86" y="0.418083" type="line"/>
    </contour>
  </outline>
</glyph>
<glyph name="t_t" format="2">
  <advance width="688"/>
  <outline>
    <component base="t"/>
    <component base="t" xOffset="328"/>
    <contour>
      <point x="491.68" y="443" type="line"/>
      <point x="491.68" y="532" type="line"/>
      <point x="146.271" y="532" type="line"/>
      <point x="146.271" y="443" type="line"/>
    </contour>
  </outline>
</glyph>
<glyph name="two.tosf" format="2">
  <advance width="524"/>
  <outline>
    <contour>
      <point x="63" y="0" type="line"/>
      <point x="473" y="0" type="line"/>
      <point x="473" y="118" type="line"/>
      <point x="252" y="118" type="line"/>
      <point x="377" y="209" type="line" smooth="yes"/>
      <point x="439.527" y="254.52"/>
      <point x="473.013" y="302.634"/>
      <point x="473.013" y="357.074" type="curve" smooth="yes"/>
      <point x="473.013" y="363.254" type="line" smooth="yes"/>
      <point x="473.013" y="468.009"/>
      <point x="384.282" y="548"/>
      <point x="268" y="548" type="curve" smooth="yes"/>
      <point x="141.281" y="548"/>
      <point x="60" y="475.707"/>
      <point x="60" y="363" type="curve" smooth="yes"/>
      <point x="60" y="354" type="line"/>
      <point x="190.187" y="354" type="line"/>
      <point x="190.187" y="360.375" type="line" smooth="yes"/>
      <point x="190.187" y="404.441"/>
      <point x="219.42" y="434"/>
      <point x="263" y="434" type="curve" smooth="yes"/>
      <point x="308.796" y="434"/>
      <point x="336.955" y="403.509"/>
      <point x="336.955" y="354" type="curve" smooth="yes"/>
      <point x="336.955" y="350.955" type="line" smooth="yes"/>
      <point x="336.955" y="322.959"/>
      <point x="310.02" y="295.676"/>
      <point x="231" y="235" type="curve" smooth="yes"/>
      <point x="63" y="106" type="line"/>
    </contour>
  </outline>
  <guideline angle="217.519" x="231" y="235"/>
  <guideline angle="36.0546" x="252" y="118"/>
</glyph>
<glyph name="zhecyr.loclBGR" format="2">
  <advance width="817"/>
  <anchor x="651" y="707" name="top"/>
  <outline>
    <contour>
      <point x="345" y="0" type="line"/>
      <point x="472" y="0" type="line"/>
      <point x="472" y="707" type="line"/>
      <point x="345" y="707" type="line"/>
    </contour>
    <contour>
      <point x="450.718" y="258" type="line"/>
      <point x="589" y="258" type="line"/>
      <point x="783" y="532" type="line"/>
      <point x="632" y="532" type="line"/>
    </contour>
    <contour>
      <point x="655" y="0" type="line"/>
      <point x="808" y="0" type="line"/>
      <point x="631" y="323" type="line"/>
      <point x="514" y="258" type="line"/>
    </contour>
    <contour>
      <point x="420" y="222" type="line"/>
      <point x="609" y="222" type="line"/>
      <point x="609" y="333" type="line"/>
      <point x="420" y="333" type="line"/>
    </contour>
    <contour>
      <point x="228" y="258" type="line"/>
      <point x="366.282" y="258" type="line"/>
      <point x="185" y="532" type="line"/>
      <point x="34" y="532" type="line"/>
    </contour>
    <contour>
      <point x="9" y="0" type="line"/>
      <point x="162" y="0" type="line"/>
      <point x="303" y="258" type="line"/>
      <point x="186" y="323" type="line"/>
    </contour>
    <contour>
      <point x="208" y="222" type="line"/>
      <point x="397" y="222" type="line"/>
      <point x="397" y="333" type="line"/>
      <point x="208" y="333" type="line"/>
    </contour>
  </outline>
  <guideline angle="90" name="vertical" x="119" y="0"/>
  <guideline angle="0" name="horizontal" x="0" y="707"/>
  <guideline angle="90" name="vertical" x="651" y="0"/>
  <guideline angle="0" name="horizontal" x="0" y="707"/>
</glyph>
